<mxfile host="Electron" agent="Mozilla/5.0 (Macintosh; Intel Mac OS X 10_15_7) AppleWebKit/537.36 (KHTML, like Gecko) draw.io/27.0.9 Chrome/134.0.6998.205 Electron/35.4.0 Safari/537.36" version="27.0.9">
  <diagram name="Page-1" id="32iR78s6OEpn3Xhuen9s">
    <mxGraphModel dx="1018" dy="748" grid="1" gridSize="10" guides="1" tooltips="1" connect="1" arrows="1" fold="1" page="1" pageScale="1" pageWidth="2756" pageHeight="1969" math="1" shadow="0">
      <root>
        <mxCell id="0" />
        <mxCell id="1" parent="0" />
        <mxCell id="tsqDyzLQdGeZLzFCfNfF-4" value="" style="rounded=0;whiteSpace=wrap;html=1;opacity=70;" parent="1" vertex="1">
          <mxGeometry x="440" y="260" width="1520" height="780" as="geometry" />
        </mxCell>
        <mxCell id="tsqDyzLQdGeZLzFCfNfF-2" value="\(u^+\)" style="text;html=1;align=center;verticalAlign=middle;whiteSpace=wrap;rounded=0;fontSize=48;rotation=-90;" parent="1" vertex="1">
          <mxGeometry x="290" y="260" width="90" height="30" as="geometry" />
        </mxCell>
        <mxCell id="tsqDyzLQdGeZLzFCfNfF-3" value="" style="curved=1;endArrow=none;html=1;rounded=0;strokeWidth=7.873999999999999;strokeColor=#FF3333;startFill=0;" parent="1" edge="1">
          <mxGeometry width="50" height="50" relative="1" as="geometry">
            <mxPoint x="440" y="1018" as="sourcePoint" />
            <mxPoint x="1814" y="320" as="targetPoint" />
            <Array as="points">
              <mxPoint x="620" y="980" />
              <mxPoint x="760" y="860" />
              <mxPoint x="890" y="743" />
              <mxPoint x="1060" y="680" />
              <mxPoint x="1220" y="610" />
              <mxPoint x="1640" y="450" />
              <mxPoint x="1730" y="360" />
            </Array>
          </mxGeometry>
        </mxCell>
        <mxCell id="tsqDyzLQdGeZLzFCfNfF-5" value="" style="endArrow=none;html=1;rounded=0;" parent="1" edge="1">
          <mxGeometry width="50" height="50" relative="1" as="geometry">
            <mxPoint x="420" y="390" as="sourcePoint" />
            <mxPoint x="440" y="390" as="targetPoint" />
          </mxGeometry>
        </mxCell>
        <mxCell id="tsqDyzLQdGeZLzFCfNfF-6" value="" style="endArrow=none;html=1;rounded=0;" parent="1" edge="1">
          <mxGeometry width="50" height="50" relative="1" as="geometry">
            <mxPoint x="420" y="520" as="sourcePoint" />
            <mxPoint x="440" y="520" as="targetPoint" />
          </mxGeometry>
        </mxCell>
        <mxCell id="tsqDyzLQdGeZLzFCfNfF-7" value="" style="endArrow=none;html=1;rounded=0;" parent="1" edge="1">
          <mxGeometry width="50" height="50" relative="1" as="geometry">
            <mxPoint x="420" y="650" as="sourcePoint" />
            <mxPoint x="440" y="649.66" as="targetPoint" />
          </mxGeometry>
        </mxCell>
        <mxCell id="tsqDyzLQdGeZLzFCfNfF-8" value="" style="endArrow=none;html=1;rounded=0;" parent="1" edge="1">
          <mxGeometry width="50" height="50" relative="1" as="geometry">
            <mxPoint x="420" y="780" as="sourcePoint" />
            <mxPoint x="440" y="780" as="targetPoint" />
          </mxGeometry>
        </mxCell>
        <mxCell id="tsqDyzLQdGeZLzFCfNfF-9" value="" style="endArrow=none;html=1;rounded=0;" parent="1" edge="1">
          <mxGeometry width="50" height="50" relative="1" as="geometry">
            <mxPoint x="420" y="910" as="sourcePoint" />
            <mxPoint x="440" y="910" as="targetPoint" />
          </mxGeometry>
        </mxCell>
        <mxCell id="tsqDyzLQdGeZLzFCfNfF-10" value="" style="endArrow=none;html=1;rounded=0;" parent="1" edge="1">
          <mxGeometry width="50" height="50" relative="1" as="geometry">
            <mxPoint x="1200" y="1060" as="sourcePoint" />
            <mxPoint x="1199.76" y="1040" as="targetPoint" />
          </mxGeometry>
        </mxCell>
        <mxCell id="tsqDyzLQdGeZLzFCfNfF-11" value="" style="endArrow=none;html=1;rounded=0;" parent="1" edge="1">
          <mxGeometry width="50" height="50" relative="1" as="geometry">
            <mxPoint x="1580" y="1060" as="sourcePoint" />
            <mxPoint x="1580" y="1040" as="targetPoint" />
          </mxGeometry>
        </mxCell>
        <mxCell id="tsqDyzLQdGeZLzFCfNfF-13" value="" style="endArrow=none;html=1;rounded=0;" parent="1" edge="1">
          <mxGeometry width="50" height="50" relative="1" as="geometry">
            <mxPoint x="1960" y="1060" as="sourcePoint" />
            <mxPoint x="1959.9999999999998" y="1040" as="targetPoint" />
          </mxGeometry>
        </mxCell>
        <mxCell id="tsqDyzLQdGeZLzFCfNfF-14" value="" style="endArrow=none;dashed=1;html=1;rounded=0;exitX=0.228;exitY=0.795;exitDx=0;exitDy=0;exitPerimeter=0;" parent="1" edge="1">
          <mxGeometry width="50" height="50" relative="1" as="geometry">
            <mxPoint x="999.9999999999999" y="1040" as="sourcePoint" />
            <mxPoint x="1000" y="518" as="targetPoint" />
          </mxGeometry>
        </mxCell>
        <mxCell id="tsqDyzLQdGeZLzFCfNfF-40" value="&lt;span style=&quot;font-size: 24px;&quot;&gt;\(y^+=30\)&lt;/span&gt;" style="edgeLabel;html=1;align=center;verticalAlign=middle;resizable=0;points=[];rotation=-90;" parent="tsqDyzLQdGeZLzFCfNfF-14" vertex="1" connectable="0">
          <mxGeometry x="-0.7791" y="2" relative="1" as="geometry">
            <mxPoint y="-12" as="offset" />
          </mxGeometry>
        </mxCell>
        <mxCell id="tsqDyzLQdGeZLzFCfNfF-15" value="" style="endArrow=none;dashed=1;html=1;rounded=0;exitX=0.228;exitY=0.795;exitDx=0;exitDy=0;exitPerimeter=0;" parent="1" edge="1">
          <mxGeometry width="50" height="50" relative="1" as="geometry">
            <mxPoint x="1080" y="1040" as="sourcePoint" />
            <mxPoint x="1081" y="439" as="targetPoint" />
          </mxGeometry>
        </mxCell>
        <mxCell id="tsqDyzLQdGeZLzFCfNfF-41" value="&lt;span style=&quot;font-size: 24px;&quot;&gt;\(y^+=50\)&lt;/span&gt;" style="edgeLabel;html=1;align=center;verticalAlign=middle;resizable=0;points=[];rotation=-90;" parent="tsqDyzLQdGeZLzFCfNfF-15" vertex="1" connectable="0">
          <mxGeometry x="-0.8003" relative="1" as="geometry">
            <mxPoint y="-10" as="offset" />
          </mxGeometry>
        </mxCell>
        <mxCell id="tsqDyzLQdGeZLzFCfNfF-16" value="" style="endArrow=none;dashed=1;html=1;rounded=0;" parent="1" edge="1">
          <mxGeometry width="50" height="50" relative="1" as="geometry">
            <mxPoint x="1580" y="510" as="sourcePoint" />
            <mxPoint x="1580" y="260" as="targetPoint" />
          </mxGeometry>
        </mxCell>
        <mxCell id="tsqDyzLQdGeZLzFCfNfF-20" value="" style="endArrow=none;html=1;rounded=0;" parent="1" edge="1">
          <mxGeometry width="50" height="50" relative="1" as="geometry">
            <mxPoint x="820" y="1060" as="sourcePoint" />
            <mxPoint x="820" y="1040" as="targetPoint" />
          </mxGeometry>
        </mxCell>
        <mxCell id="tsqDyzLQdGeZLzFCfNfF-21" value="" style="endArrow=none;html=1;rounded=0;" parent="1" edge="1">
          <mxGeometry width="50" height="50" relative="1" as="geometry">
            <mxPoint x="420" y="910" as="sourcePoint" />
            <mxPoint x="440" y="910" as="targetPoint" />
          </mxGeometry>
        </mxCell>
        <mxCell id="tsqDyzLQdGeZLzFCfNfF-22" value="" style="endArrow=none;html=1;rounded=0;" parent="1" edge="1">
          <mxGeometry width="50" height="50" relative="1" as="geometry">
            <mxPoint x="420" y="1040" as="sourcePoint" />
            <mxPoint x="440" y="1040" as="targetPoint" />
          </mxGeometry>
        </mxCell>
        <mxCell id="tsqDyzLQdGeZLzFCfNfF-23" value="" style="endArrow=none;html=1;rounded=0;" parent="1" edge="1">
          <mxGeometry width="50" height="50" relative="1" as="geometry">
            <mxPoint x="440" y="1040" as="sourcePoint" />
            <mxPoint x="440" y="1060" as="targetPoint" />
          </mxGeometry>
        </mxCell>
        <mxCell id="tsqDyzLQdGeZLzFCfNfF-24" value="\(10^0\)" style="text;html=1;align=center;verticalAlign=middle;whiteSpace=wrap;rounded=0;fontSize=36;" parent="1" vertex="1">
          <mxGeometry x="400" y="1070" width="90" height="30" as="geometry" />
        </mxCell>
        <mxCell id="tsqDyzLQdGeZLzFCfNfF-25" value="\(10^1\)" style="text;html=1;align=center;verticalAlign=middle;whiteSpace=wrap;rounded=0;fontSize=36;" parent="1" vertex="1">
          <mxGeometry x="780" y="1070" width="90" height="30" as="geometry" />
        </mxCell>
        <mxCell id="tsqDyzLQdGeZLzFCfNfF-26" value="\(10^2\)" style="text;html=1;align=center;verticalAlign=middle;whiteSpace=wrap;rounded=0;fontSize=36;" parent="1" vertex="1">
          <mxGeometry x="1160" y="1070" width="90" height="30" as="geometry" />
        </mxCell>
        <mxCell id="tsqDyzLQdGeZLzFCfNfF-27" value="\(10^3\)" style="text;html=1;align=center;verticalAlign=middle;whiteSpace=wrap;rounded=0;fontSize=36;" parent="1" vertex="1">
          <mxGeometry x="1540" y="1070" width="90" height="30" as="geometry" />
        </mxCell>
        <mxCell id="tsqDyzLQdGeZLzFCfNfF-28" value="\(10^4\)" style="text;html=1;align=center;verticalAlign=middle;whiteSpace=wrap;rounded=0;fontSize=36;" parent="1" vertex="1">
          <mxGeometry x="1910" y="1070" width="90" height="30" as="geometry" />
        </mxCell>
        <mxCell id="tsqDyzLQdGeZLzFCfNfF-29" value="\(0\)" style="text;html=1;align=right;verticalAlign=middle;whiteSpace=wrap;rounded=0;fontSize=36;" parent="1" vertex="1">
          <mxGeometry x="310" y="1020" width="90" height="30" as="geometry" />
        </mxCell>
        <mxCell id="tsqDyzLQdGeZLzFCfNfF-30" value="\(5\)" style="text;html=1;align=right;verticalAlign=middle;whiteSpace=wrap;rounded=0;fontSize=36;" parent="1" vertex="1">
          <mxGeometry x="310" y="890" width="90" height="30" as="geometry" />
        </mxCell>
        <mxCell id="tsqDyzLQdGeZLzFCfNfF-31" value="\(10\)" style="text;html=1;align=right;verticalAlign=middle;whiteSpace=wrap;rounded=0;fontSize=36;" parent="1" vertex="1">
          <mxGeometry x="310" y="760" width="90" height="30" as="geometry" />
        </mxCell>
        <mxCell id="tsqDyzLQdGeZLzFCfNfF-32" value="\(15\)" style="text;html=1;align=right;verticalAlign=middle;whiteSpace=wrap;rounded=0;fontSize=36;" parent="1" vertex="1">
          <mxGeometry x="310" y="630" width="90" height="30" as="geometry" />
        </mxCell>
        <mxCell id="tsqDyzLQdGeZLzFCfNfF-33" value="\(20\)" style="text;html=1;align=right;verticalAlign=middle;whiteSpace=wrap;rounded=0;fontSize=36;" parent="1" vertex="1">
          <mxGeometry x="310" y="500" width="90" height="30" as="geometry" />
        </mxCell>
        <mxCell id="tsqDyzLQdGeZLzFCfNfF-34" value="\(25\)" style="text;html=1;align=right;verticalAlign=middle;whiteSpace=wrap;rounded=0;fontSize=36;" parent="1" vertex="1">
          <mxGeometry x="310" y="370" width="90" height="30" as="geometry" />
        </mxCell>
        <mxCell id="tsqDyzLQdGeZLzFCfNfF-35" value="\(y^+\)" style="text;html=1;align=center;verticalAlign=middle;whiteSpace=wrap;rounded=0;fontSize=48;rotation=0;" parent="1" vertex="1">
          <mxGeometry x="2010" y="1020" width="90" height="30" as="geometry" />
        </mxCell>
        <mxCell id="tsqDyzLQdGeZLzFCfNfF-38" value="" style="endArrow=none;dashed=1;html=1;rounded=0;exitX=0.228;exitY=0.795;exitDx=0;exitDy=0;exitPerimeter=0;" parent="1" edge="1">
          <mxGeometry width="50" height="50" relative="1" as="geometry">
            <mxPoint x="700" y="1040" as="sourcePoint" />
            <mxPoint x="700" y="540" as="targetPoint" />
          </mxGeometry>
        </mxCell>
        <mxCell id="tsqDyzLQdGeZLzFCfNfF-39" value="\(y^+=5\)" style="edgeLabel;html=1;align=center;verticalAlign=middle;resizable=0;points=[];fontSize=24;rotation=-90;" parent="tsqDyzLQdGeZLzFCfNfF-38" vertex="1" connectable="0">
          <mxGeometry x="-0.4829" y="1" relative="1" as="geometry">
            <mxPoint y="74" as="offset" />
          </mxGeometry>
        </mxCell>
        <mxCell id="tsqDyzLQdGeZLzFCfNfF-43" value="" style="endArrow=classic;startArrow=classic;html=1;rounded=0;" parent="1" edge="1">
          <mxGeometry width="50" height="50" relative="1" as="geometry">
            <mxPoint x="441" y="801" as="sourcePoint" />
            <mxPoint x="700" y="800" as="targetPoint" />
          </mxGeometry>
        </mxCell>
        <mxCell id="tsqDyzLQdGeZLzFCfNfF-44" value="&lt;span style=&quot;text-wrap-mode: wrap;&quot;&gt;viscous&amp;nbsp;&lt;/span&gt;&lt;div style=&quot;text-wrap-mode: wrap;&quot;&gt;&lt;span&gt;sublayer&lt;/span&gt;&lt;/div&gt;" style="edgeLabel;html=1;align=center;verticalAlign=middle;resizable=0;points=[];fontSize=30;" parent="tsqDyzLQdGeZLzFCfNfF-43" vertex="1" connectable="0">
          <mxGeometry relative="1" as="geometry">
            <mxPoint as="offset" />
          </mxGeometry>
        </mxCell>
        <mxCell id="tsqDyzLQdGeZLzFCfNfF-45" value="" style="endArrow=classic;startArrow=classic;html=1;rounded=0;" parent="1" edge="1">
          <mxGeometry width="50" height="50" relative="1" as="geometry">
            <mxPoint x="700" y="560" as="sourcePoint" />
            <mxPoint x="1000" y="560" as="targetPoint" />
          </mxGeometry>
        </mxCell>
        <mxCell id="tsqDyzLQdGeZLzFCfNfF-46" value="&lt;span style=&quot;text-wrap-mode: wrap;&quot;&gt;buffer layer&lt;/span&gt;" style="edgeLabel;html=1;align=center;verticalAlign=middle;resizable=0;points=[];fontSize=30;" parent="tsqDyzLQdGeZLzFCfNfF-45" vertex="1" connectable="0">
          <mxGeometry relative="1" as="geometry">
            <mxPoint as="offset" />
          </mxGeometry>
        </mxCell>
        <mxCell id="14ynSb8H-3KbKwfKDN2F-1" value="" style="endArrow=classic;startArrow=classic;html=1;rounded=0;exitX=0;exitY=0.285;exitDx=0;exitDy=0;exitPerimeter=0;" parent="1" source="tsqDyzLQdGeZLzFCfNfF-4" edge="1">
          <mxGeometry width="50" height="50" relative="1" as="geometry">
            <mxPoint x="510" y="199.99555555555565" as="sourcePoint" />
            <mxPoint x="1075" y="480" as="targetPoint" />
          </mxGeometry>
        </mxCell>
        <mxCell id="14ynSb8H-3KbKwfKDN2F-2" value="viscous wall region" style="edgeLabel;html=1;align=center;verticalAlign=middle;resizable=0;points=[];fontSize=30;" parent="14ynSb8H-3KbKwfKDN2F-1" vertex="1" connectable="0">
          <mxGeometry relative="1" as="geometry">
            <mxPoint as="offset" />
          </mxGeometry>
        </mxCell>
        <mxCell id="14ynSb8H-3KbKwfKDN2F-8" value="" style="endArrow=none;html=1;rounded=0;" parent="1" edge="1">
          <mxGeometry width="50" height="50" relative="1" as="geometry">
            <mxPoint x="1200" y="260" as="sourcePoint" />
            <mxPoint x="1199.76" y="240" as="targetPoint" />
          </mxGeometry>
        </mxCell>
        <mxCell id="14ynSb8H-3KbKwfKDN2F-9" value="" style="endArrow=none;html=1;rounded=0;" parent="1" edge="1">
          <mxGeometry width="50" height="50" relative="1" as="geometry">
            <mxPoint x="1580" y="260" as="sourcePoint" />
            <mxPoint x="1580" y="240" as="targetPoint" />
          </mxGeometry>
        </mxCell>
        <mxCell id="14ynSb8H-3KbKwfKDN2F-10" value="" style="endArrow=none;html=1;rounded=0;" parent="1" edge="1">
          <mxGeometry width="50" height="50" relative="1" as="geometry">
            <mxPoint x="1960" y="260" as="sourcePoint" />
            <mxPoint x="1959.9999999999998" y="240" as="targetPoint" />
          </mxGeometry>
        </mxCell>
        <mxCell id="14ynSb8H-3KbKwfKDN2F-11" value="" style="endArrow=none;html=1;rounded=0;" parent="1" edge="1">
          <mxGeometry width="50" height="50" relative="1" as="geometry">
            <mxPoint x="820" y="260" as="sourcePoint" />
            <mxPoint x="820" y="240" as="targetPoint" />
          </mxGeometry>
        </mxCell>
        <mxCell id="14ynSb8H-3KbKwfKDN2F-13" value="" style="endArrow=none;html=1;rounded=0;" parent="1" edge="1">
          <mxGeometry width="50" height="50" relative="1" as="geometry">
            <mxPoint x="440" y="240" as="sourcePoint" />
            <mxPoint x="440" y="260" as="targetPoint" />
          </mxGeometry>
        </mxCell>
        <mxCell id="14ynSb8H-3KbKwfKDN2F-14" value="\(10^{-4}\)" style="text;html=1;align=center;verticalAlign=middle;whiteSpace=wrap;rounded=0;fontSize=36;" parent="1" vertex="1">
          <mxGeometry x="400" y="190" width="90" height="30" as="geometry" />
        </mxCell>
        <mxCell id="14ynSb8H-3KbKwfKDN2F-15" value="\(10^{-3}\)" style="text;html=1;align=center;verticalAlign=middle;whiteSpace=wrap;rounded=0;fontSize=36;" parent="1" vertex="1">
          <mxGeometry x="780" y="190" width="90" height="30" as="geometry" />
        </mxCell>
        <mxCell id="14ynSb8H-3KbKwfKDN2F-16" value="\(0.01\)" style="text;html=1;align=center;verticalAlign=middle;whiteSpace=wrap;rounded=0;fontSize=36;" parent="1" vertex="1">
          <mxGeometry x="1155" y="190" width="90" height="30" as="geometry" />
        </mxCell>
        <mxCell id="14ynSb8H-3KbKwfKDN2F-17" value="\(0.3\)" style="text;html=1;align=center;verticalAlign=middle;whiteSpace=wrap;rounded=0;fontSize=36;" parent="1" vertex="1">
          <mxGeometry x="1720" y="190" width="90" height="30" as="geometry" />
        </mxCell>
        <mxCell id="14ynSb8H-3KbKwfKDN2F-18" value="\(1\)" style="text;html=1;align=center;verticalAlign=middle;whiteSpace=wrap;rounded=0;fontSize=36;" parent="1" vertex="1">
          <mxGeometry x="1910" y="190" width="90" height="30" as="geometry" />
        </mxCell>
        <mxCell id="14ynSb8H-3KbKwfKDN2F-19" value="\(0.1\)" style="text;html=1;align=center;verticalAlign=middle;whiteSpace=wrap;rounded=0;fontSize=36;" parent="1" vertex="1">
          <mxGeometry x="1530" y="190" width="90" height="30" as="geometry" />
        </mxCell>
        <mxCell id="14ynSb8H-3KbKwfKDN2F-20" value="" style="endArrow=none;html=1;rounded=0;" parent="1" edge="1">
          <mxGeometry width="50" height="50" relative="1" as="geometry">
            <mxPoint x="1580" y="260" as="sourcePoint" />
            <mxPoint x="1580" y="240" as="targetPoint" />
          </mxGeometry>
        </mxCell>
        <mxCell id="14ynSb8H-3KbKwfKDN2F-21" value="" style="endArrow=none;html=1;rounded=0;" parent="1" edge="1">
          <mxGeometry width="50" height="50" relative="1" as="geometry">
            <mxPoint x="1770" y="260" as="sourcePoint" />
            <mxPoint x="1770" y="240" as="targetPoint" />
          </mxGeometry>
        </mxCell>
        <mxCell id="14ynSb8H-3KbKwfKDN2F-22" value="\(\frac{y}{\delta}\)" style="text;html=1;align=center;verticalAlign=middle;whiteSpace=wrap;rounded=0;fontSize=64;rotation=0;" parent="1" vertex="1">
          <mxGeometry x="2010" y="180" width="90" height="120" as="geometry" />
        </mxCell>
        <mxCell id="14ynSb8H-3KbKwfKDN2F-23" value="" style="endArrow=classic;startArrow=classic;html=1;rounded=0;exitX=0;exitY=0.285;exitDx=0;exitDy=0;exitPerimeter=0;" parent="1" edge="1">
          <mxGeometry width="50" height="50" relative="1" as="geometry">
            <mxPoint x="440" y="322" as="sourcePoint" />
            <mxPoint x="1576" y="319" as="targetPoint" />
          </mxGeometry>
        </mxCell>
        <mxCell id="14ynSb8H-3KbKwfKDN2F-24" value="inner layer" style="edgeLabel;html=1;align=center;verticalAlign=middle;resizable=0;points=[];fontSize=30;" parent="14ynSb8H-3KbKwfKDN2F-23" vertex="1" connectable="0">
          <mxGeometry relative="1" as="geometry">
            <mxPoint as="offset" />
          </mxGeometry>
        </mxCell>
        <mxCell id="14ynSb8H-3KbKwfKDN2F-25" value="" style="endArrow=classic;startArrow=classic;html=1;rounded=0;exitX=0;exitY=0.285;exitDx=0;exitDy=0;exitPerimeter=0;" parent="1" edge="1">
          <mxGeometry width="50" height="50" relative="1" as="geometry">
            <mxPoint x="1080" y="852.5" as="sourcePoint" />
            <mxPoint x="1960" y="850" as="targetPoint" />
          </mxGeometry>
        </mxCell>
        <mxCell id="14ynSb8H-3KbKwfKDN2F-26" value="outer layer" style="edgeLabel;html=1;align=center;verticalAlign=middle;resizable=0;points=[];fontSize=30;" parent="14ynSb8H-3KbKwfKDN2F-25" vertex="1" connectable="0">
          <mxGeometry relative="1" as="geometry">
            <mxPoint as="offset" />
          </mxGeometry>
        </mxCell>
        <mxCell id="14ynSb8H-3KbKwfKDN2F-27" value="" style="endArrow=classic;startArrow=classic;html=1;rounded=0;exitX=0;exitY=0.285;exitDx=0;exitDy=0;exitPerimeter=0;" parent="1" edge="1">
          <mxGeometry width="50" height="50" relative="1" as="geometry">
            <mxPoint x="1080" y="401.5" as="sourcePoint" />
            <mxPoint x="1581" y="400" as="targetPoint" />
          </mxGeometry>
        </mxCell>
        <mxCell id="14ynSb8H-3KbKwfKDN2F-28" value="log-law region" style="edgeLabel;html=1;align=center;verticalAlign=middle;resizable=0;points=[];fontSize=30;spacingLeft=0;" parent="14ynSb8H-3KbKwfKDN2F-27" vertex="1" connectable="0">
          <mxGeometry relative="1" as="geometry">
            <mxPoint as="offset" />
          </mxGeometry>
        </mxCell>
        <mxCell id="14ynSb8H-3KbKwfKDN2F-29" value="&lt;font style=&quot;font-size: 36px;&quot;&gt;\(u^+ = y^+\)&lt;/font&gt;" style="text;html=1;align=center;verticalAlign=middle;whiteSpace=wrap;rounded=0;" parent="1" vertex="1">
          <mxGeometry x="745" y="620" width="160" height="60" as="geometry" />
        </mxCell>
        <mxCell id="14ynSb8H-3KbKwfKDN2F-30" value="&lt;font style=&quot;font-size: 36px;&quot;&gt;\(u^+ = \frac{1}{\kappa}\ln(y^+) + B\)&lt;/font&gt;" style="text;html=1;align=center;verticalAlign=middle;whiteSpace=wrap;rounded=0;" parent="1" vertex="1">
          <mxGeometry x="1550" y="520" width="385" height="70" as="geometry" />
        </mxCell>
        <mxCell id="14ynSb8H-3KbKwfKDN2F-31" value="" style="endArrow=none;html=1;rounded=0;entryX=0.25;entryY=1;entryDx=0;entryDy=0;" parent="1" target="14ynSb8H-3KbKwfKDN2F-29" edge="1">
          <mxGeometry width="50" height="50" relative="1" as="geometry">
            <mxPoint x="854" y="715" as="sourcePoint" />
            <mxPoint x="860" y="730" as="targetPoint" />
          </mxGeometry>
        </mxCell>
        <mxCell id="14ynSb8H-3KbKwfKDN2F-32" value="" style="endArrow=none;html=1;rounded=0;entryX=0;entryY=1;entryDx=0;entryDy=0;exitX=1;exitY=1;exitDx=0;exitDy=0;" parent="1" source="14ynSb8H-3KbKwfKDN2F-29" target="14ynSb8H-3KbKwfKDN2F-29" edge="1">
          <mxGeometry width="50" height="50" relative="1" as="geometry">
            <mxPoint x="835" y="710" as="sourcePoint" />
            <mxPoint x="760" y="680" as="targetPoint" />
          </mxGeometry>
        </mxCell>
        <mxCell id="tsqDyzLQdGeZLzFCfNfF-18" value="" style="curved=1;endArrow=none;html=1;rounded=0;strokeWidth=3.9369999999999994;strokeColor=#808080;startFill=0;" parent="1" edge="1">
          <mxGeometry width="50" height="50" relative="1" as="geometry">
            <mxPoint x="440" y="1018" as="sourcePoint" />
            <mxPoint x="860" y="704" as="targetPoint" />
            <Array as="points">
              <mxPoint x="532" y="996" />
              <mxPoint x="610" y="970" />
              <mxPoint x="693" y="922" />
              <mxPoint x="808" y="812" />
            </Array>
          </mxGeometry>
        </mxCell>
        <mxCell id="14ynSb8H-3KbKwfKDN2F-33" value="" style="endArrow=none;html=1;rounded=0;entryX=0;entryY=0;entryDx=0;entryDy=0;exitX=0.96;exitY=-0.003;exitDx=0;exitDy=0;exitPerimeter=0;" parent="1" source="14ynSb8H-3KbKwfKDN2F-30" target="14ynSb8H-3KbKwfKDN2F-30" edge="1">
          <mxGeometry width="50" height="50" relative="1" as="geometry">
            <mxPoint x="1270" y="790" as="sourcePoint" />
            <mxPoint x="1320" y="740" as="targetPoint" />
          </mxGeometry>
        </mxCell>
        <mxCell id="14ynSb8H-3KbKwfKDN2F-34" value="" style="endArrow=none;dashed=1;html=1;rounded=0;exitX=0.228;exitY=0.795;exitDx=0;exitDy=0;exitPerimeter=0;entryX=0.422;entryY=0.154;entryDx=0;entryDy=0;entryPerimeter=0;" parent="1" target="tsqDyzLQdGeZLzFCfNfF-4" edge="1">
          <mxGeometry width="50" height="50" relative="1" as="geometry">
            <mxPoint x="1080" y="1040" as="sourcePoint" />
            <mxPoint x="1081" y="439" as="targetPoint" />
          </mxGeometry>
        </mxCell>
        <mxCell id="14ynSb8H-3KbKwfKDN2F-35" value="&lt;span style=&quot;font-size: 24px;&quot;&gt;\(y^+=50\)&lt;/span&gt;" style="edgeLabel;html=1;align=center;verticalAlign=middle;resizable=0;points=[];rotation=-90;" parent="14ynSb8H-3KbKwfKDN2F-34" vertex="1" connectable="0">
          <mxGeometry x="-0.8003" relative="1" as="geometry">
            <mxPoint y="-10" as="offset" />
          </mxGeometry>
        </mxCell>
        <mxCell id="14ynSb8H-3KbKwfKDN2F-36" value="" style="endArrow=none;html=1;rounded=0;exitX=0.5;exitY=0;exitDx=0;exitDy=0;" parent="1" source="14ynSb8H-3KbKwfKDN2F-30" edge="1">
          <mxGeometry width="50" height="50" relative="1" as="geometry">
            <mxPoint x="1490" y="580" as="sourcePoint" />
            <mxPoint x="1800" y="380" as="targetPoint" />
          </mxGeometry>
        </mxCell>
        <mxCell id="tsqDyzLQdGeZLzFCfNfF-19" value="" style="endArrow=none;html=1;rounded=0;fillColor=#0050ef;strokeColor=#808080;strokeWidth=3.9369999999999994;" parent="1" edge="1">
          <mxGeometry width="50" height="50" relative="1" as="geometry">
            <mxPoint x="761" y="795" as="sourcePoint" />
            <mxPoint x="1811" y="377" as="targetPoint" />
          </mxGeometry>
        </mxCell>
        <mxCell id="14ynSb8H-3KbKwfKDN2F-37" value="for \(Re_\tau = 10^4\)" style="text;html=1;align=center;verticalAlign=middle;whiteSpace=wrap;rounded=0;fontSize=16;" parent="1" vertex="1">
          <mxGeometry x="1810" y="220" width="120" height="30" as="geometry" />
        </mxCell>
      </root>
    </mxGraphModel>
  </diagram>
</mxfile>
